<?xml version="1.0" standalone="no"?>
<svg xmlns:xlink="http://www.w3.org/1999/xlink" id="wave" style="transform:rotate(0deg); transition: 0.3s" viewBox="0 0 1440 100" version="1.1" xmlns="http://www.w3.org/2000/svg"><defs><linearGradient id="sw-gradient-0" x1="0" x2="0" y1="1" y2="0"><stop stop-color="rgba(255, 255, 255, 1)" offset="0%"/><stop stop-color="rgba(255, 255, 255, 1)" offset="100%"/></linearGradient></defs><path style="transform:translate(0, 0px); opacity:1" fill="url(#sw-gradient-0)" d="M0,80L40,68.3C80,57,160,33,240,31.7C320,30,400,50,480,60C560,70,640,70,720,61.7C800,53,880,37,960,25C1040,13,1120,7,1200,15C1280,23,1360,47,1440,61.7C1520,77,1600,83,1680,75C1760,67,1840,43,1920,30C2000,17,2080,13,2160,13.3C2240,13,2320,17,2400,30C2480,43,2560,67,2640,66.7C2720,67,2800,43,2880,40C2960,37,3040,53,3120,56.7C3200,60,3280,50,3360,40C3440,30,3520,20,3600,15C3680,10,3760,10,3840,15C3920,20,4000,30,4080,28.3C4160,27,4240,13,4320,13.3C4400,13,4480,27,4560,30C4640,33,4720,27,4800,33.3C4880,40,4960,60,5040,71.7C5120,83,5200,87,5280,86.7C5360,87,5440,83,5520,80C5600,77,5680,73,5720,71.7L5760,70L5760,100L5720,100C5680,100,5600,100,5520,100C5440,100,5360,100,5280,100C5200,100,5120,100,5040,100C4960,100,4880,100,4800,100C4720,100,4640,100,4560,100C4480,100,4400,100,4320,100C4240,100,4160,100,4080,100C4000,100,3920,100,3840,100C3760,100,3680,100,3600,100C3520,100,3440,100,3360,100C3280,100,3200,100,3120,100C3040,100,2960,100,2880,100C2800,100,2720,100,2640,100C2560,100,2480,100,2400,100C2320,100,2240,100,2160,100C2080,100,2000,100,1920,100C1840,100,1760,100,1680,100C1600,100,1520,100,1440,100C1360,100,1280,100,1200,100C1120,100,1040,100,960,100C880,100,800,100,720,100C640,100,560,100,480,100C400,100,320,100,240,100C160,100,80,100,40,100L0,100Z"/></svg>